<?xml version="1.0" standalone="no"?>
<!DOCTYPE svg PUBLIC "-//W3C//DTD SVG 20010904//EN"
 "http://www.w3.org/TR/2001/REC-SVG-20010904/DTD/svg10.dtd">
<svg version="1.0" xmlns="http://www.w3.org/2000/svg"
 width="250.000000pt" height="44.000000pt" viewBox="0 0 250.000000 44.000000"
 preserveAspectRatio="xMidYMid meet">
<metadata>
Created by potrace 1.10, written by Peter Selinger 2001-2011
</metadata>
<g transform="translate(0.000000,44.000000) scale(0.100000,-0.100000)"
fill="#000000" stroke="none">
<path d="M60 220 l0 -170 40 0 40 0 0 50 0 50 75 0 75 0 0 35 0 35 -75 0 -75
0 0 50 0 50 85 0 85 0 0 35 0 35 -125 0 -125 0 0 -170z m69 -23 c8 -11 6 -18
-9 -32 -20 -18 -20 -17 -20 13 0 34 10 41 29 19z"/>
<path d="M470 220 l0 -170 40 0 40 0 -6 40 -7 40 50 0 c48 0 52 -2 77 -40 24
-37 30 -40 72 -40 l46 0 -36 49 c-29 39 -33 50 -21 55 24 9 55 68 55 104 0 45
-25 89 -63 112 -26 17 -51 20 -139 20 l-108 0 0 -170z m220 80 c24 -24 25 -48
4 -78 -13 -19 -24 -22 -85 -22 l-69 0 0 60 0 60 65 0 c52 0 69 -4 85 -20z"/>
<path d="M1004 371 c-64 -29 -89 -72 -89 -153 0 -74 16 -105 75 -145 42 -29
120 -31 170 -4 94 50 118 177 47 258 -56 63 -126 79 -203 44z m142 -85 c38
-38 43 -70 19 -116 -19 -37 -43 -50 -90 -50 -97 0 -133 138 -47 184 45 25 80
20 118 -18z"/>
<path d="M1518 303 c2 -47 1 -101 -3 -120 -8 -44 -44 -67 -105 -66 -41 1 -49
-3 -54 -21 -10 -38 -6 -44 34 -51 59 -10 132 11 166 46 28 30 29 33 34 165 l5
134 -40 0 -40 0 3 -87z"/>
<path d="M1833 373 c-4 -10 -35 -87 -69 -171 l-62 -153 41 3 c36 3 42 7 52 38
l12 35 73 0 73 0 12 -35 c11 -32 16 -35 54 -38 l42 -3 -14 33 c-8 18 -38 95
-68 171 l-53 137 -43 0 c-32 0 -45 -5 -50 -17z m70 -122 c9 -27 17 -50 17 -52
0 -2 -18 -4 -40 -4 -22 0 -40 2 -40 4 0 11 36 101 40 101 3 0 13 -22 23 -49z
m61 -67 c10 -25 7 -34 -9 -28 -8 4 -15 15 -15 25 0 23 16 25 24 3z"/>
<path d="M2190 220 l0 -170 123 0 123 0 -4 35 -4 35 -79 0 -79 0 0 135 0 135
-40 0 -40 0 0 -170z"/>
</g>
</svg>
